<?xml version="1.0" encoding="utf-8"?>
<svg viewBox="200.641 156.483 122.75 142.537" xmlns="http://www.w3.org/2000/svg">
  <path d="M 262.025 156.483 L 200.641 258.341 L 262.016 294.625 L 323.391 258.375 L 262.025 156.483 Z" fill="#1E293B"/>
  <path d="M 296.844 239.01 C 292.248 243.604 286.265 246.289 279.839 246.725 C 282.971 243.194 284.891 238.565 284.891 233.483 L 278.225 233.483 C 278.225 240.846 272.251 246.817 264.891 246.817 L 264.891 230.15 C 273.426 230.15 291.123 220.667 296.293 212.484 L 292.2 205.861 C 283.567 218.736 272.019 223.479 264.904 223.482 C 264.963 216.451 267.719 209.847 272.703 204.864 L 267.99 200.15 C 266.118 202.022 264.5 204.136 263.113 206.407 C 261.528 201.685 259.141 192.973 245.187 184.269 L 240.225 190.904 C 250.589 195.155 258.225 209.929 258.225 217.051 L 258.225 233.483 C 250.862 233.483 244.891 227.51 244.891 220.15 L 238.225 220.15 C 238.225 231.179 247.196 240.15 258.225 240.15 L 258.225 246.818 L 244.891 246.818 C 237.528 246.817 231.558 240.846 231.558 233.483 L 224.891 233.483 C 224.891 239.885 227.925 245.579 232.62 249.245 C 228.477 250.919 220.914 255.251 212.574 266.82 L 218.835 271.564 C 226.961 260.351 238.003 253.483 245.125 253.483 L 258.225 253.483 L 258.225 298.862 L 264.891 299.02 L 264.891 253.483 L 277.991 253.483 C 286.526 253.483 295.054 250.227 301.558 243.723 L 296.844 239.01 Z" fill="white"/>
</svg>